<svg width="193" height="31" viewBox="0 0 193 31" fill="none" xmlns="http://www.w3.org/2000/svg">
<path d="M13.1401 7.83219V29.0002H6.08409V7.83219H0.288086V1.85619H18.9361V7.83219H13.1401Z" fill="#2C6153"/>
<path d="M20.8506 15.4282C20.8506 13.4122 21.2226 11.5402 21.9666 9.81219C22.7106 8.06019 23.7426 6.53619 25.0626 5.24019C26.3826 3.94419 27.9546 2.93619 29.7786 2.21619C31.6266 1.47219 33.6546 1.10019 35.8626 1.10019C37.6626 1.10019 39.3306 1.35219 40.8666 1.85619C42.4026 2.33619 43.7946 3.02019 45.0426 3.90819L48.5706 0.596191L51.3786 3.54819L47.9946 6.75219C48.9066 7.95219 49.6146 9.28419 50.1186 10.7482C50.6466 12.2122 50.9106 13.7722 50.9106 15.4282C50.9106 17.4442 50.5386 19.3282 49.7946 21.0802C49.0506 22.8082 48.0066 24.3202 46.6626 25.6162C45.3426 26.9122 43.7586 27.9322 41.9106 28.6762C40.0626 29.3962 38.0466 29.7562 35.8626 29.7562C34.0626 29.7562 32.3826 29.5042 30.8226 29.0002C29.2626 28.5202 27.8586 27.8242 26.6106 26.9122L23.1186 30.2242L20.3106 27.3082L23.6946 24.1042C22.7826 22.8802 22.0746 21.5482 21.5706 20.1082C21.0906 18.6442 20.8506 17.0842 20.8506 15.4282ZM43.5306 15.4282C43.5306 14.7562 43.4466 14.1202 43.2786 13.5202C43.1106 12.9202 42.8826 12.3562 42.5946 11.8282L31.9386 21.8722C33.1146 22.5682 34.4226 22.9162 35.8626 22.9162C36.8946 22.9162 37.8666 22.7362 38.7786 22.3762C39.7146 21.9922 40.5306 21.4642 41.2266 20.7922C41.9466 20.1202 42.5106 19.3282 42.9186 18.4162C43.3266 17.5042 43.5306 16.5082 43.5306 15.4282ZM28.2306 15.4282C28.2306 16.1002 28.3026 16.7362 28.4466 17.3362C28.6146 17.9122 28.8306 18.4642 29.0946 18.9922L39.7146 8.94819C38.5146 8.27619 37.2306 7.94019 35.8626 7.94019C34.8306 7.94019 33.8466 8.13219 32.9106 8.51619C31.9986 8.87619 31.1946 9.39219 30.4986 10.0642C29.8026 10.7362 29.2506 11.5282 28.8426 12.4402C28.4346 13.3522 28.2306 14.3482 28.2306 15.4282Z" fill="#2C6153"/>
<path d="M54.1435 15.4282C54.1435 13.4122 54.5155 11.5402 55.2595 9.81219C56.0035 8.06019 57.0355 6.53619 58.3555 5.24019C59.6755 3.94419 61.2475 2.93619 63.0715 2.21619C64.9195 1.47219 66.9475 1.10019 69.1555 1.10019C70.9555 1.10019 72.6235 1.35219 74.1595 1.85619C75.6955 2.33619 77.0875 3.02019 78.3355 3.90819L81.8635 0.596191L84.6715 3.54819L81.2875 6.75219C82.1995 7.95219 82.9075 9.28419 83.4115 10.7482C83.9395 12.2122 84.2035 13.7722 84.2035 15.4282C84.2035 17.4442 83.8315 19.3282 83.0875 21.0802C82.3435 22.8082 81.2995 24.3202 79.9555 25.6162C78.6355 26.9122 77.0515 27.9322 75.2035 28.6762C73.3555 29.3962 71.3395 29.7562 69.1555 29.7562C67.3555 29.7562 65.6755 29.5042 64.1155 29.0002C62.5555 28.5202 61.1515 27.8242 59.9035 26.9122L56.4115 30.2242L53.6035 27.3082L56.9875 24.1042C56.0755 22.8802 55.3675 21.5482 54.8635 20.1082C54.3835 18.6442 54.1435 17.0842 54.1435 15.4282ZM76.8235 15.4282C76.8235 14.7562 76.7395 14.1202 76.5715 13.5202C76.4035 12.9202 76.1755 12.3562 75.8875 11.8282L65.2315 21.8722C66.4075 22.5682 67.7155 22.9162 69.1555 22.9162C70.1875 22.9162 71.1595 22.7362 72.0715 22.3762C73.0075 21.9922 73.8235 21.4642 74.5195 20.7922C75.2395 20.1202 75.8035 19.3282 76.2115 18.4162C76.6195 17.5042 76.8235 16.5082 76.8235 15.4282ZM61.5235 15.4282C61.5235 16.1002 61.5955 16.7362 61.7395 17.3362C61.9075 17.9122 62.1235 18.4642 62.3875 18.9922L73.0075 8.94819C71.8075 8.27619 70.5235 7.94019 69.1555 7.94019C68.1235 7.94019 67.1395 8.13219 66.2035 8.51619C65.2915 8.87619 64.4875 9.39219 63.7915 10.0642C63.0955 10.7362 62.5435 11.5282 62.1355 12.4402C61.7275 13.3522 61.5235 14.3482 61.5235 15.4282Z" fill="#2C6153"/>
<path d="M95.7165 1.85619V23.0242H104.176V29.0002H88.6605V1.85619H95.7165Z" fill="#2C6153"/>
<path d="M114.877 23.5282H116.425C118.201 23.5282 119.473 23.3002 120.241 22.8442C121.009 22.3882 121.393 21.6562 121.393 20.6482C121.393 19.6402 121.009 18.9082 120.241 18.4522C119.473 17.9962 118.201 17.7682 116.425 17.7682H114.877V23.5282ZM114.877 12.5122H116.173C118.381 12.5122 119.485 11.6362 119.485 9.88419C119.485 8.13219 118.381 7.25619 116.173 7.25619H114.877V12.5122ZM107.821 1.85619H118.333C120.829 1.85619 122.725 2.45619 124.021 3.65619C125.317 4.85619 125.965 6.58419 125.965 8.84019C125.965 10.2082 125.713 11.3482 125.209 12.2602C124.729 13.1482 123.985 13.9042 122.977 14.5282C123.985 14.7202 124.837 15.0202 125.533 15.4282C126.253 15.8122 126.829 16.2922 127.261 16.8682C127.717 17.4442 128.041 18.0922 128.233 18.8122C128.425 19.5322 128.521 20.3002 128.521 21.1162C128.521 22.3882 128.293 23.5162 127.837 24.5002C127.405 25.4842 126.781 26.3122 125.965 26.9842C125.173 27.6562 124.201 28.1602 123.049 28.4962C121.897 28.8322 120.601 29.0002 119.161 29.0002H107.821V1.85619Z" fill="#2C6153"/>
<path d="M131.522 15.4282C131.522 13.4122 131.894 11.5402 132.638 9.81219C133.382 8.06019 134.414 6.53619 135.734 5.24019C137.054 3.94419 138.626 2.93619 140.45 2.21619C142.298 1.47219 144.326 1.10019 146.534 1.10019C148.334 1.10019 150.002 1.35219 151.538 1.85619C153.074 2.33619 154.466 3.02019 155.714 3.90819L159.242 0.596191L162.05 3.54819L158.666 6.75219C159.578 7.95219 160.286 9.28419 160.79 10.7482C161.318 12.2122 161.582 13.7722 161.582 15.4282C161.582 17.4442 161.21 19.3282 160.466 21.0802C159.722 22.8082 158.678 24.3202 157.334 25.6162C156.014 26.9122 154.43 27.9322 152.582 28.6762C150.734 29.3962 148.718 29.7562 146.534 29.7562C144.734 29.7562 143.054 29.5042 141.494 29.0002C139.934 28.5202 138.53 27.8242 137.282 26.9122L133.79 30.2242L130.982 27.3082L134.366 24.1042C133.454 22.8802 132.746 21.5482 132.242 20.1082C131.762 18.6442 131.522 17.0842 131.522 15.4282ZM154.202 15.4282C154.202 14.7562 154.118 14.1202 153.95 13.5202C153.782 12.9202 153.554 12.3562 153.266 11.8282L142.61 21.8722C143.786 22.5682 145.094 22.9162 146.534 22.9162C147.566 22.9162 148.538 22.7362 149.45 22.3762C150.386 21.9922 151.202 21.4642 151.898 20.7922C152.618 20.1202 153.182 19.3282 153.59 18.4162C153.998 17.5042 154.202 16.5082 154.202 15.4282ZM138.902 15.4282C138.902 16.1002 138.974 16.7362 139.118 17.3362C139.286 17.9122 139.502 18.4642 139.766 18.9922L150.386 8.94819C149.186 8.27619 147.902 7.94019 146.534 7.94019C145.502 7.94019 144.518 8.13219 143.582 8.51619C142.67 8.87619 141.866 9.39219 141.17 10.0642C140.474 10.7362 139.922 11.5282 139.514 12.4402C139.106 13.3522 138.902 14.3482 138.902 15.4282Z" fill="#2C6153"/>
<path d="M173.815 14.5282L165.355 1.85619H174.067L177.739 8.87619L182.275 1.85619H190.987L182.023 14.5282L192.139 29.0002H183.535L178.099 20.1442L171.727 29.0002H163.195L173.815 14.5282Z" fill="#2C6153"/>
</svg>
